# xmcd
#
# Track frame offsets:
#	150
#	17032
#	33295
#	50665
#	65331
#	81075
#	98525
#	116812
#	136174
#	150875
#
# Disc length: 2357 seconds
#
# Revision: 6
# Processed by: cddbd v1.5.1PL0 Copyright (c) Steve Scherf et al.
# Submitted via: EasyCDDAExtractor 8.0.1.1
#
DISCID=7109330a
DTITLE=Jennifer Rush
DYEAR=1984
DGENRE=Pop
TTITLE0=Madonna's Eyes
TTITLE1=25 Lovers
TTITLE2=Come Give Me Your Hand
TTITLE3=Nobody Move
TTITLE4=Never Gonna Turn Back Again
TTITLE5=Ring Of Ice
TTITLE6=Into My Dreams
TTITLE7=I See A Shadow Not A Fantasy
TTITLE8=Surrender
TTITLE9=The Power Of Love
EXTD=
EXTT0=
EXTT1=
EXTT2=
EXTT3=
EXTT4=
EXTT5=
EXTT6=
EXTT7=
EXTT8=
EXTT9=
PLAYORDER=
